# AST/ASF file generated using VICON BodyLanguage
# -----------------------------------------------
:version 1.10
:name VICON
:units
  mass 1.0
  length 0.45
  angle deg
:documentation
   .ast/.asf automatically generated from VICON data using
   VICON BodyBuilder and BodyLanguage model FoxedUp or BRILLIANT.MOD
:root
   order TX TY TZ RX RY RZ
   axis XYZ
   position 0 0 0  
   orientation 0 0 0 
:bonedata
  begin
     id 1 
     name lhipjoint
     direction 0.693937 -0.600361 0.397515 
     length 2.37164 
     axis 0 0 0  XYZ
  end
  begin
     id 2 
     name lfemur
     direction 0.34202 -0.939693 0  
     length 6.18497  
     axis 0 0 20  XYZ
    dof rx ry rz
    limits (-160.0 20.0)
           (-70.0 70.0)
           (-60.0 70.0)
  end
  begin
     id 3 
     name ltibia
     direction 0.34202 -0.939693 0   
     length 6.91601   
     axis 0 0 20   XYZ
    dof rx
    limits (-10.0 170.0)
  end
  begin
     id 4 
     name lfoot
     direction 0.0978718 -0.2689 0.958182   
     length 1.81453   
     axis -90 7.62852e-016 20   XYZ
    dof rx rz
    limits (-45.0 90.0)
           (-70.0 20.0)
  end
  begin
     id 5 
     name ltoes
     direction 1.53569e-011 -4.21951e-011 1   
     length 0.912052   
     axis -90 7.62852e-016 20   XYZ
    dof rx
    limits (-90.0 20.0)
  end
  begin
     id 6 
     name rhipjoint
     direction -0.643996 -0.637876 0.422354   
     length 2.23216  
     axis 0 0 0  XYZ 
  end
  begin
     id 7 
     name rfemur
     direction -0.34202 -0.939693 0   
     length 6.15404   
     axis 0 0 -20   XYZ
    dof rx ry rz
    limits (-160.0 20.0)
           (-70.0 70.0)
           (-70.0 60.0)
  end
  begin
     id 8 
     name rtibia
     direction -0.34202 -0.939693 0   
     length 6.86744   
     axis 0 0 -20   XYZ
    dof rx
    limits (-10.0 170.0)
 end
 begin
     id 9 
     name rfoot
     direction -0.118701 -0.326127 0.937844   
     length 1.9243  
     axis -90 -7.62852e-016 -20   XYZ
    dof rx rz
    limits (-45.0 90.0)
           (-20.0 70.0)
  end
  begin
     id 10 
     name rtoes
     direction -1.5356e-011 -4.2181e-011 1   
     length 0.958865   
     axis -90 -7.62852e-016 -20   XYZ
    dof rx
    limits (-90.0 20.0)
  end
  begin
     id 11 
     name lowerback
     direction 0.0310826 0.968686 -0.246334   
     length 2.00021   
     axis 0 0 0   XYZ
    dof rx ry rz
    limits (-20.0 45.0)
           (-30.0 30.0)
           (-30.0 30.0)
  end
  begin
     id 12 
     name upperback
     direction -0.0152834 0.999474 -0.0286152   
     length 2.03728   
     axis 0 0 0   XYZ
    dof rx ry rz
    limits (-20.0 45.0)
           (-30.0 30.0)
           (-30.0 30.0)
  end
  begin
     id 13 
     name thorax
     direction -0.0323701 0.996236 0.0804149   
     length 2.16   
     axis 0 0 0   XYZ
    dof rx ry rz
    limits (-20.0 45.0)
           (-30.0 30.0)
           (-30.0 30.0)
  end
  begin
     id 14 
     name lowerneck
     direction 0.0307935 0.982251 0.185027   
     length 1.43558   
     axis 0 0 0   XYZ
    dof rx ry rz
    limits (-20.0 45.0)
           (-30.0 30.0)
           (-30.0 30.0)
  end
  begin
     id 15 
     name upperneck
     direction -0.0927153 0.994775 0.0427454   
     length 1.44603   
     axis 0 0 0   XYZ
    dof rx ry rz
    limits (-20.0 45.0)
           (-30.0 30.0)
           (-30.0 30.0)
  end
  begin
     id 16
     name head
     direction -0.0341265 0.999406 -0.00472033  
     length 1.45931  
     axis 0 0 0   XYZ
    dof rx ry rz
    limits (-20.0 45.0)
           (-30.0 30.0)
           (-30.0 30.0)
  end
  begin
     id 17 
     name lclavicle
     direction 0.820755 0.555306 -0.134151  
     length 2.66075  
     axis 0 0 0   XYZ
    dof ry rz
    limits (-20.0 10.0)
           (0.0 20.0)
  end
  begin
     id 18 
     name lhumerus
     direction 1 -4.48971e-011 5.24853e-027   
     length 5.0546   
     axis -180 -30 -90   XYZ
    dof rx ry rz
    limits (-60.0 90.0)
           (-90.0 90.0)
           (-90.0 90.0)
  end
  begin
     id 19
     name lradius
     direction 1 -4.48971e-011 2.76575e-028   
     length 3.39013   
     axis -180 -30 -90   XYZ
    dof rx
    limits (-10.0 170.0)
  end
  begin
     id 20
     name lwrist
     direction 1 -4.48939e-011 -2.27826e-027   
     length 1.69507   
     axis 2.17013e-015 90 90   XYZ
    dof ry
    limits (-180.0 0.0)
 end
  begin
     id 21 
     name lhand
     direction 1 -4.49009e-011 -4.55652e-027   
     length 0.572425   
     axis 2.90745e-015 90 90   XYZ
    dof rx rz
    limits (-90.0 90.0)
           (-45.0 45.0)
  end
  begin
     id 22 
     name lfingers
     direction 1 -4.48955e-011 -9.11303e-027   
     length 0.461504   
     axis 5.81489e-015 90 90   XYZ
    dof rx
    limits (0.0 90.0)
  end
  begin
     id 23
     name lthumb
     direction 0.707107 -6.34929e-011 0.707107   
     length 0.66263   
     axis -90 45 2.85299e-015   XYZ
    dof rx rz
    limits (-45.0 45.0)
           (-45.0 45.0)
  end
  begin
     id 24 
     name rclavicle
     direction -0.754477 0.632921 -0.173712   
     length 2.73081  
     axis 0 0 0   XYZ 
    dof ry rz
    limits (-10.0 20.0)
           (-20.0 0.0)
  end
  begin
     id 25 
     name rhumerus
     direction -1 -4.48969e-011 5.1496e-027  
     length 5.0701   
     axis -180 30 90   XYZ
    dof rx ry rz
    limits (-90.0 60.0)
           (-90.0 90.0)
           (-90.0 90.0)
  end
  begin
     id 26 
     name rradius
     direction -1 -4.48967e-011 -7.15624e-028   
     length 3.14957   
     axis -180 30 90   XYZ
    dof rx
    limits (-10.0 170.0)
  end
  begin
     id 27 
     name rwrist
     direction -1 -4.48938e-011 -2.27826e-027   
     length 1.57479   
     axis 2.17013e-015 -90 -90   XYZ
    dof ry
    limits (-180.0 0.0)
  end
  begin
     id 28
     name rhand
     direction -1 -4.49008e-011 -4.55652e-027   
     length 0.718191   
     axis 2.90745e-015 -90 -90   XYZ
    dof rx rz
    limits (-90.0 90.0)
           (-45.0 45.0)
  end
  begin
     id 29
     name rfingers
     direction -1 -4.48953e-011 -9.11303e-027   
     length 0.579024   
     axis 5.81489e-015 -90 -90   XYZ
    dof rx
    limits (0.0 90.0)
  end
  begin
     id 30
     name rthumb
     direction -0.707107 -6.34937e-011 0.707107   
     length 0.831366   
     axis -90 -45 -2.85299e-015   XYZ
    dof rx rz
    limits (-45.0 45.0)
           (-45.0 45.0)
  end
:hierarchy
  begin
    root lhipjoint rhipjoint lowerback
    lhipjoint lfemur
    lfemur ltibia
    ltibia lfoot
    lfoot ltoes
    rhipjoint rfemur
    rfemur rtibia
    rtibia rfoot
    rfoot rtoes
    lowerback upperback
    upperback thorax
    thorax lowerneck lclavicle rclavicle
    lowerneck upperneck
    upperneck head
    lclavicle lhumerus
    lhumerus lradius
    lradius lwrist
    lwrist lhand lthumb
    lhand lfingers
    rclavicle rhumerus
    rhumerus rradius
    rradius rwrist
    rwrist rhand rthumb
    rhand rfingers
  end

#!OML:ASF H:\Male1\Project 1\Capture day 1\Session 1\Male1.ASF
:FULLY-SPECIFIED
:DEGREES
34
root -27.5542 15.0404 -16.3243 -0.350438 3.02609 0.03576
lowerback 3.9365 2.87032 1.81542
upperback 3.48162 3.90678 -3.05237
thorax 1.71884 2.03979 -4.24696
lowerneck -8.56271 7.24437 12.6897
upperneck 18.7975 9.41434 -7.33436
head 8.19196 4.74236 -3.56615
rclavicle 2.47487e-014 -2.38542e-015
rhumerus -37.9055 -6.48075 -86.0912
rradius 37.3288
rwrist -21.0163
rhand -18.3066 2.03812
rfingers 7.12502
rthumb 7.97444 -27.7914
lclavicle 2.47487e-014 -2.38542e-015
lhumerus -34.5819 -1.69527 81.0355
lradius 39.7443
lwrist 2.17847
lhand -21.2386 12.028
lfingers 7.12502
lthumb 5.144 41.9456
rfemur -6.22984 17.1442 26.516
rtibia 30.9125
rfoot -38.2023 -26.0198
rtoes 2.54545
lfemur -8.32736 -17.9512 -22.4804
ltibia 32.9218
lfoot -27.5657 24.7226
ltoes -3.95997
35
root -27.5541 15.0415 -16.3247 -0.332803 2.98442 0.0602028
lowerback 3.91845 2.86527 1.75154
upperback 3.48144 3.89777 -3.01723
thorax 1.72075 2.03324 -4.17347
lowerneck -8.57817 7.23118 12.6682
upperneck 18.8085 9.40743 -7.37954
head 8.19844 4.73345 -3.57845
rclavicle 5.76476e-015 6.36111e-015
rhumerus -37.9424 -6.38345 -86.056
rradius 37.354
rwrist -21.0512
rhand -18.2475 2.02115
rfingers 7.12502
rthumb 8.03143 -27.8062
lclavicle 5.76476e-015 6.36111e-015
lhumerus -34.3822 -1.90837 81.2712
lradius 39.8071
lwrist 2.30951
lhand -21.2705 12.0061
lfingers 7.12502
lthumb 5.11312 41.9244
rfemur -6.27387 17.1234 26.4762
rtibia 30.9394
rfoot -38.2304 -25.9447
rtoes 2.67157
lfemur -8.32561 -17.9469 -22.5029
ltibia 32.8897
lfoot -27.5871 24.7246
ltoes -3.83684
36
root -27.554 15.0423 -16.3258 -0.319402 2.94025 0.0890285
lowerback 3.91322 2.86262 1.6902
upperback 3.48191 3.89216 -2.98801
thorax 1.71713 2.02849 -4.10834
lowerneck -8.567 7.22404 12.6278
upperneck 18.7901 9.40714 -7.39301
head 8.18855 4.7295 -3.57697
rclavicle 6.92765e-014 -1.35174e-014
rhumerus -37.9739 -6.29357 -86.0242
rradius 37.3623
rwrist -21.0799
rhand -18.2271 2.00264
rfingers 7.12502
rthumb 8.05114 -27.824
lclavicle 6.92765e-014 -1.35174e-014
lhumerus -34.1806 -2.09113 81.4895
lradius 39.8485
lwrist 2.38457
lhand -21.2878 11.9618
lfingers 7.12502
lthumb 5.09648 41.8805
rfemur -6.3227 17.0751 26.4265
rtibia 30.9763
rfoot -38.2277 -25.8543
rtoes 2.73922
lfemur -8.31838 -17.9366 -22.5309
ltibia 32.8531
lfoot -27.6067 24.7208
ltoes -3.67429
37
root -27.5535 15.0433 -16.3277 -0.304773 2.90358 0.120912
lowerback 3.91489 2.86003 1.64805
upperback 3.48388 3.88741 -2.97457
thorax 1.71385 2.0249 -4.07073
lowerneck -8.54528 7.22397 12.5859
upperneck 18.7555 9.41092 -7.37605
head 8.17037 4.7301 -3.56475
rclavicle -2.8625e-014 4.77083e-015
rhumerus -37.9856 -6.2513 -85.9958
rradius 37.3347
rwrist -21.082
rhand -18.235 1.99331
rfingers 7.12502
rthumb 8.04349 -27.8336
lclavicle -2.8625e-014 4.77083e-015
lhumerus -33.9766 -2.26232 81.6813
lradius 39.873
lwrist 2.4156
lhand -21.2795 11.8916
lfingers 7.12502
lthumb 5.10443 41.8101
rfemur -6.38273 17.0082 26.3677
rtibia 31.0227
rfoot -38.2314 -25.7454
rtoes 2.8527
lfemur -8.31497 -17.932 -22.5626
ltibia 32.8124
lfoot -27.6079 24.7237
ltoes -3.50382
38
root -27.5532 15.0442 -16.3302 -0.300959 2.87488 0.15736
lowerback 3.9311 2.85693 1.61832
upperback 3.49268 3.88263 -2.97726
thorax 1.71162 2.02197 -4.05742
lowerneck -8.52445 7.2314 12.5595
upperneck 18.7165 9.41929 -7.34517
head 8.15164 4.73504 -3.54968
rclavicle 3.44891e-014 -3.18055e-015
rhumerus -37.9709 -6.27723 -85.9659
rradius 37.2642
rwrist -21.0423
rhand -18.2597 1.99928
rfingers 7.12502
rthumb 8.01973 -27.8286
lclavicle 3.44891e-014 -3.18055e-015
lhumerus -33.7705 -2.43873 81.8452
lradius 39.8786
lwrist 2.4178
lhand -21.2509 11.7998
lfingers 7.12502
lthumb 5.13207 41.7176
rfemur -6.43843 16.9504 26.3102
rtibia 31.079
rfoot -38.2343 -25.6649
rtoes 2.94694
lfemur -8.30042 -17.9305 -22.6019
ltibia 32.7656
lfoot -27.5873 24.731
ltoes -3.35887
